<svg width="28" height="29" viewBox="0 0 28 29" fill="none" xmlns="http://www.w3.org/2000/svg">
<path d="M17.3742 26.249V19.4988C17.3742 19.2005 17.2557 18.9143 17.0447 18.7033C16.8337 18.4924 16.5475 18.3738 16.2492 18.3738H11.7492C11.4508 18.3738 11.1647 18.4924 10.9537 18.7033C10.7427 18.9143 10.6242 19.2005 10.6242 19.4988V26.249C10.6242 26.5473 10.5057 26.8334 10.2947 27.0444C10.0838 27.2554 9.79766 27.3739 9.49932 27.374L2.75014 27.3749C2.60239 27.3749 2.45609 27.3458 2.31958 27.2893C2.18307 27.2327 2.05904 27.1499 1.95455 27.0454C1.85007 26.9409 1.76719 26.8169 1.71065 26.6804C1.6541 26.5439 1.625 26.3976 1.625 26.2499V13.2476C1.625 13.0909 1.65775 12.9359 1.72115 12.7925C1.78455 12.6492 1.87721 12.5207 1.99317 12.4152L13.2424 2.18692C13.4495 1.99863 13.7193 1.8943 13.9992 1.89429C14.2791 1.89428 14.5489 1.9986 14.756 2.18687L26.0068 12.4152C26.1228 12.5207 26.2154 12.6492 26.2788 12.7925C26.3422 12.9359 26.375 13.0909 26.375 13.2477V26.2499C26.375 26.3976 26.3459 26.5439 26.2894 26.6804C26.2328 26.8169 26.1499 26.9409 26.0454 27.0454C25.941 27.1499 25.8169 27.2327 25.6804 27.2893C25.5439 27.3458 25.3976 27.3749 25.2499 27.3749L18.499 27.374C18.2007 27.3739 17.9146 27.2554 17.7036 27.0444C17.4927 26.8334 17.3742 26.5473 17.3742 26.249V26.249Z" stroke="#FF8B5B" stroke-width="2" stroke-linecap="round" stroke-linejoin="round"/>
</svg>
