<svg width="26" height="26" viewBox="0 0 26 26" fill="none" xmlns="http://www.w3.org/2000/svg">
<path d="M9.75 22.75H16.25" stroke="black" stroke-width="2" stroke-linecap="round" stroke-linejoin="round"/>
<path d="M5.70809 10.5625C5.70674 9.59888 5.89613 8.64453 6.26534 7.75445C6.63455 6.86437 7.17628 6.05617 7.8593 5.37643C8.54232 4.69669 9.35312 4.15886 10.245 3.79394C11.1368 3.42901 12.0921 3.24422 13.0557 3.2502C17.0765 3.28009 20.2927 6.62221 20.2927 10.6543V11.375C20.2927 15.0125 21.0537 17.1233 21.724 18.277C21.7962 18.4003 21.8346 18.5404 21.8354 18.6833C21.8361 18.8261 21.7992 18.9667 21.7283 19.0907C21.6574 19.2147 21.5551 19.3179 21.4316 19.3897C21.3082 19.4616 21.1679 19.4996 21.0251 19.5H4.97487C4.83199 19.4996 4.69174 19.4616 4.56825 19.3897C4.44477 19.3178 4.34243 19.2147 4.27156 19.0906C4.20068 18.9665 4.16377 18.826 4.16456 18.6831C4.16535 18.5402 4.20381 18.4001 4.27605 18.2768C4.9467 17.1231 5.70808 15.0123 5.70808 11.375L5.70809 10.5625Z" stroke="black" stroke-width="2" stroke-linecap="round" stroke-linejoin="round"/>
</svg>
