<svg width="42" height="42" viewBox="0 0 42 42" fill="none" xmlns="http://www.w3.org/2000/svg">
<path d="M17.0629 7.875H9.18793C8.46305 7.875 7.87543 8.46263 7.87543 9.1875V17.0625C7.87543 17.7874 8.46305 18.375 9.18793 18.375H17.0629C17.7878 18.375 18.3754 17.7874 18.3754 17.0625V9.1875C18.3754 8.46263 17.7878 7.875 17.0629 7.875Z" stroke="#FBFBFB" stroke-width="2" stroke-linecap="round" stroke-linejoin="round"/>
<path d="M17.0629 23.625H9.18793C8.46305 23.625 7.87543 24.2126 7.87543 24.9375V32.8125C7.87543 33.5374 8.46305 34.125 9.18793 34.125H17.0629C17.7878 34.125 18.3754 33.5374 18.3754 32.8125V24.9375C18.3754 24.2126 17.7878 23.625 17.0629 23.625Z" stroke="#FBFBFB" stroke-width="2" stroke-linecap="round" stroke-linejoin="round"/>
<path d="M32.8129 7.875H24.9379C24.213 7.875 23.6254 8.46263 23.6254 9.1875V17.0625C23.6254 17.7874 24.213 18.375 24.9379 18.375H32.8129C33.5377 18.375 34.1254 17.7874 34.1254 17.0625V9.1875C34.1254 8.46263 33.5377 7.875 32.8129 7.875Z" stroke="#FBFBFB" stroke-width="2" stroke-linecap="round" stroke-linejoin="round"/>
<path d="M23.6254 23.625V28.875" stroke="#FBFBFB" stroke-width="2" stroke-linecap="round" stroke-linejoin="round"/>
<path d="M23.6254 34.125H28.8754V23.625" stroke="#FBFBFB" stroke-width="2" stroke-linecap="round" stroke-linejoin="round"/>
<path d="M28.8754 26.25H34.1254" stroke="#FBFBFB" stroke-width="2" stroke-linecap="round" stroke-linejoin="round"/>
<path d="M34.1254 31.5V34.125" stroke="#FBFBFB" stroke-width="2" stroke-linecap="round" stroke-linejoin="round"/>
</svg>
