<svg width="36" height="36" viewBox="0 0 36 36" fill="none" xmlns="http://www.w3.org/2000/svg">
<path d="M29.368 30.375H6.6319C6.35504 30.375 6.0879 30.2729 5.88161 30.0883C5.67532 29.9036 5.54435 29.6494 5.51378 29.3742L3.51378 11.3742C3.49631 11.217 3.5122 11.0578 3.56042 10.9071C3.60864 10.7564 3.68811 10.6176 3.79363 10.4997C3.89915 10.3818 4.02835 10.2875 4.17279 10.2229C4.31724 10.1584 4.47368 10.125 4.6319 10.125H31.368C31.5263 10.125 31.6827 10.1584 31.8272 10.2229C31.9716 10.2875 32.1008 10.3818 32.2063 10.4997C32.3118 10.6176 32.3913 10.7564 32.4395 10.9071C32.4877 11.0578 32.5036 11.217 32.4862 11.3742L30.4862 29.3742C30.4556 29.6494 30.3246 29.9036 30.1183 30.0883C29.912 30.2729 29.6449 30.375 29.368 30.375Z" stroke="#171717" stroke-width="2" stroke-linecap="round" stroke-linejoin="round"/>
<path d="M12.375 10.125C12.375 8.63316 12.9676 7.20242 14.0225 6.14752C15.0774 5.09263 16.5082 4.5 18 4.5C19.4918 4.5 20.9226 5.09263 21.9775 6.14752C23.0324 7.20242 23.625 8.63316 23.625 10.125" stroke="#171717" stroke-width="2" stroke-linecap="round" stroke-linejoin="round"/>
</svg>
